<svg xmlns="http://www.w3.org/2000/svg" width="505.283" height="512" viewBox="0 0 505.283 512">
  <g id="diamond" transform="translate(-3.358)">
    <g id="Group_2" data-name="Group 2">
      <g id="Group_1" data-name="Group 1">
        <path id="Path_1" data-name="Path 1" d="M506.135,221.963l-87.2-98.667a10,10,0,0,0-7.493-3.378H100.556a10,10,0,0,0-7.493,3.378l-87.2,98.667a9.995,9.995,0,0,0,.954,14.185c.021.023.037.049.058.073L248.519,508.636a10,10,0,0,0,14.962,0L505.123,236.221c.021-.023.038-.049.058-.073a9.995,9.995,0,0,0,.954-14.185ZM393.713,139.917l-44.441,71.644-71.22-71.644Zm-65.659,78.668H183.946L256,146.1Zm-94.106-78.667-71.22,71.644-44.441-71.644ZM99,146.774l44.545,71.811H35.541ZM35.709,238.585H153.887l81.636,225.261ZM276.848,463.428l57.038-154.372a10,10,0,1,0-18.76-6.932L256.091,461.9,175.16,238.585H476.291Zm91.6-244.843L413,146.774l63.463,71.811H368.451Z" fill="#db3056"/>
      </g>
    </g>
    <g id="Group_4" data-name="Group 4">
      <g id="Group_3" data-name="Group 3">
        <path id="Path_2" data-name="Path 2" d="M256,0a10,10,0,0,0-10,10V61.513a10,10,0,0,0,20,0V10A10,10,0,0,0,256,0Z" fill="#db3056"/>
      </g>
    </g>
    <g id="Group_6" data-name="Group 6">
      <g id="Group_5" data-name="Group 5">
        <path id="Path_3" data-name="Path 3" d="M347.062,39.524a10,10,0,0,0-14.143,0L296.493,75.949a10,10,0,0,0,14.143,14.142l36.426-36.425A10,10,0,0,0,347.062,39.524Z" fill="#db3056"/>
      </g>
    </g>
    <g id="Group_8" data-name="Group 8">
      <g id="Group_7" data-name="Group 7">
        <path id="Path_4" data-name="Path 4" d="M213.558,75.949,177.133,39.524A10,10,0,1,0,162.99,53.666l36.426,36.425a10,10,0,0,0,14.142-14.142Z" fill="#db3056"/>
      </g>
    </g>
    <g id="Group_10" data-name="Group 10">
      <g id="Group_9" data-name="Group 9">
        <circle id="Ellipse_1" data-name="Ellipse 1" cx="10" cy="10" r="10" transform="translate(327.43 258.36)" fill="#db3056"/>
      </g>
    </g>
  </g>
</svg>
