<svg xmlns="http://www.w3.org/2000/svg" width="479.868" height="512" viewBox="0 0 479.868 512">
  <g id="happy_clients" transform="translate(0 0)">
    <path id="Path_5" data-name="Path 5" d="M159.773,380.527a71.233,71.233,0,1,0-96.7.039A111.526,111.526,0,0,0,0,480.918V497a15,15,0,0,0,15,15H207.8a15,15,0,0,0,15-15V480.934c0-53.539-35.074-86.914-63.027-100.406ZM111.4,287.066A41.232,41.232,0,1,1,70.167,328.3,41.278,41.278,0,0,1,111.4,287.066ZM192.8,482H30v-1.082a81.4,81.4,0,0,1,162.8.016Zm0,0" fill="#db3056"/>
    <path id="Path_6" data-name="Path 6" d="M416.84,380.527a71.232,71.232,0,1,0-96.746,0c-27.875,13.457-63.027,46.855-63.027,100.406V497a15,15,0,0,0,15,15h192.8a15,15,0,0,0,15-15V480.933c0-53.375-34.906-86.832-63.027-100.406ZM327.234,328.3a41.232,41.232,0,1,1,41.234,41.23A41.279,41.279,0,0,1,327.234,328.3ZM449.867,482h-162.8v-1.066a81.4,81.4,0,0,1,162.8,0Zm0,0" fill="#db3056"/>
    <path id="Path_7" data-name="Path 7" d="M297.133,115.465a15,15,0,0,0-21,3,45.252,45.252,0,0,1-72.4,0,15,15,0,0,0-24,18,75.254,75.254,0,0,0,120.406,0,15,15,0,0,0-3-21Zm0,0" fill="#db3056"/>
    <path id="Path_8" data-name="Path 8" d="M222.8,79.266a15,15,0,1,1-15-15A15,15,0,0,1,222.8,79.266Zm0,0" fill="#db3056"/>
    <path id="Path_9" data-name="Path 9" d="M287.066,79.266a15,15,0,1,1-15-15A15,15,0,0,1,287.066,79.266Zm0,0" fill="#db3056"/>
    <path id="Path_10" data-name="Path 10" d="M368.469,222.8A47.187,47.187,0,0,0,415.6,175.668V47.133A47.117,47.117,0,0,0,368.469,0H111.4A47.118,47.118,0,0,0,64.266,47.133V175.668A47.188,47.188,0,0,0,111.4,222.8h75.223l39.895,79.785a15,15,0,0,0,26.832,0L293.243,222.8Zm-97.91-21.707-30.625,61.242-30.621-61.242a15,15,0,0,0-13.418-8.293H111.4a17.155,17.155,0,0,1-17.137-17.133V47.133A17.137,17.137,0,0,1,111.4,30H368.469A17.129,17.129,0,0,1,385.6,47.133V175.668A17.154,17.154,0,0,1,368.469,192.8h-84.5a14.993,14.993,0,0,0-13.414,8.293Zm0,0" fill="#db3056"/>
  </g>
</svg>
