<svg xmlns="http://www.w3.org/2000/svg" width="480" height="416" viewBox="0 0 480 416">
  <g id="online-support" transform="translate(0 -0.5)">
    <path id="Path_11" data-name="Path 11" d="M464,352.5v-232a40.047,40.047,0,0,0-40-40v-56a24,24,0,0,0-24-24H208a24,24,0,0,0-24,24v24H80a24,24,0,0,0-24,24v8a40.047,40.047,0,0,0-40,40v232a16,16,0,0,0-16,16v8a40.047,40.047,0,0,0,40,40H440a40.047,40.047,0,0,0,40-40v-8A16,16,0,0,0,464,352.5ZM200,24.5a8,8,0,0,1,8-8H400a8,8,0,0,1,8,8v128a8,8,0,0,1-8,8H368a8,8,0,0,0-5.656,2.344L328,197.188V168.5a8,8,0,0,0-8-8H296v-88a24,24,0,0,0-24-24H200ZM72,72.5a8,8,0,0,1,8-8H272a8,8,0,0,1,8,8v128a8,8,0,0,1-8,8H192a8,8,0,0,0-8,8v28.688l-34.344-34.344A8,8,0,0,0,144,208.5H80a8,8,0,0,1-8-8Zm-40,48a24,24,0,0,1,24-24v104a24,24,0,0,0,24,24h60.688l45.656,45.656A8,8,0,0,0,192,272.5a7.849,7.849,0,0,0,3.063-.609A8,8,0,0,0,200,264.5v-40h72a24,24,0,0,0,24-24v-24h16v40a8,8,0,0,0,4.938,7.391A7.849,7.849,0,0,0,320,224.5a8,8,0,0,0,5.656-2.344L371.313,176.5H400a24,24,0,0,0,24-24v-56a24,24,0,0,1,24,24v232H32Zm432,256a24,24,0,0,1-24,24H40a24,24,0,0,1-24-24v-8H200a16,16,0,0,0,16,16h48a16,16,0,0,0,16-16H464Zm0,0" fill="#db3056"/>
    <path id="Path_12" data-name="Path 12" d="M104,96.5H248v16H104Zm0,0" fill="#db3056"/>
    <path id="Path_13" data-name="Path 13" d="M104,128.5H248v16H104Zm0,0" fill="#db3056"/>
    <path id="Path_14" data-name="Path 14" d="M104,160.5H248v16H104Zm0,0" fill="#db3056"/>
    <path id="Path_15" data-name="Path 15" d="M312,48.5h64v16H312Zm0,0" fill="#db3056"/>
    <path id="Path_16" data-name="Path 16" d="M312,80.5h64v16H312Zm0,0" fill="#db3056"/>
    <path id="Path_17" data-name="Path 17" d="M312,112.5h64v16H312Zm0,0" fill="#db3056"/>
    <path id="Path_18" data-name="Path 18" d="M432,320.5v-80H416v80H72v-80H56v80a16,16,0,0,0,16,16H416A16,16,0,0,0,432,320.5Zm0,0" fill="#db3056"/>
  </g>
</svg>
