<svg xmlns="http://www.w3.org/2000/svg" width="511.836" height="511.896" viewBox="0 0 511.836 511.896">
  <g id="play-button" transform="translate(-0.047 -0.103)">
    <g id="Group_2" data-name="Group 2">
      <g id="Group_1" data-name="Group 1">
        <path id="Path_1" data-name="Path 1" d="M477.606,128.055A255.889,255.889,0,0,0,8.83,189.772c-36.578,136.509,44.432,276.823,180.941,313.4A255.881,255.881,0,0,0,477.606,128.055Zm-.177,187.278a229.578,229.578,0,1,1-162.1-280.764C437.621,67.338,510.2,193.04,477.428,315.333Z" fill="#db3056"/>
      </g>
    </g>
    <g id="Group_4" data-name="Group 4">
      <g id="Group_3" data-name="Group 3">
        <path id="Path_2" data-name="Path 2" d="M378.778,231.852l-164.526-94.99a27.886,27.886,0,0,0-41.83,24.149v189.98a27.825,27.825,0,0,0,41.829,24.149l164.528-94.989a27.887,27.887,0,0,0,0-48.3Zm-13.326,25.222L200.925,352.063a1.236,1.236,0,0,1-1.854-1.071V161.012a1.109,1.109,0,0,1,.618-1.071,1.254,1.254,0,0,1,.633-.188,1.165,1.165,0,0,1,.6.188l164.526,94.99a1.237,1.237,0,0,1,0,2.143Z" fill="#db3056"/>
      </g>
    </g>
    <g id="Group_6" data-name="Group 6">
      <g id="Group_5" data-name="Group 5">
        <path id="Path_3" data-name="Path 3" d="M413.3,134.44A200.949,200.949,0,0,0,282.6,58.979,13.325,13.325,0,1,0,279,85.384a174.09,174.09,0,0,1,113.23,65.369A13.324,13.324,0,1,0,413.3,134.439Z" fill="#db3056"/>
      </g>
    </g>
  </g>
</svg>
