<?xml version="1.0"?>
<svg xmlns="http://www.w3.org/2000/svg" id="Layer_5" enable-background="new 0 0 64 64" height="512px" viewBox="0 0 64 64" width="512px"><g><path d="m63 43v-2h-2v-14h-6v14h-2v-10h-6v10h-2v-6h-6v6h-2v8h-4v-2c0-2.206-1.794-4-4-4h-13c-1.103 0-2-.897-2-2s.897-2 2-2h13c2.206 0 4-1.794 4-4v-3.536c1.063.953 2.464 1.536 4 1.536 3.309 0 6-2.691 6-6 0-.116-.004-.232-.011-.349 2.373-.828 4.011-3.07 4.011-5.651 0-1.536-.585-2.935-1.538-3.998.984-1.09 1.538-2.494 1.538-4.002 0-2.613-1.682-4.835-4.017-5.656.029-.516 0-1.036-.103-1.557-.455-2.305-2.304-4.175-4.601-4.653-1.811-.378-3.655.064-5.063 1.209-.478.389-.887.841-1.219 1.34-1.075-1.616-2.914-2.683-4.997-2.683-3.309 0-6 2.691-6 6 0 .116.004.232.011.349-2.373.828-4.011 3.07-4.011 5.651 0 1.536.585 2.935 1.538 3.998-.984 1.09-1.538 2.494-1.538 4.002 0 2.613 1.682 4.835 4.017 5.656-.029.515 0 1.036.103 1.557.455 2.305 2.304 4.175 4.6 4.653 1.809.377 3.655-.064 5.063-1.209.078-.063.142-.138.217-.205v3.548c0 1.103-.897 2-2 2h-13c-2.206 0-4 1.794-4 4s1.794 4 4 4h13c1.103 0 2 .897 2 2v2h-23c-3.86 0-7 3.141-7 7s3.14 7 7 7h43.217l10.287-4.676c.909-.413 1.496-1.325 1.496-2.324s-.587-1.911-1.497-2.324l-10.286-4.676h-12.217v-6zm-6-14h2v12h-2zm-8 4h2v8h-2zm-8 4h2v4h-2zm-6.521-33.105c.953-.775 2.16-1.061 3.393-.803 1.521.317 2.745 1.556 3.047 3.083.054.276.081.552.081.825-3.309 0-6 2.691-6 6h2c0-2.206 1.794-4 4-4s4 1.794 4 4c0 1.043-.411 2.003-1.116 2.741-.856-.471-1.839-.741-2.884-.741-3.309 0-6 2.691-6 6h2c0-2.206 1.794-4 4-4s4 1.794 4 4c0 1.938-1.388 3.589-3.301 3.927l-1.029.182.227 1.02c.069.31.103.595.103.871 0 2.206-1.794 4-4 4s-4-1.794-4-4v-20c0-1.209.539-2.341 1.479-3.105zm-4.958 26.21c-.954.775-2.157 1.06-3.394.803-1.521-.317-2.745-1.556-3.046-3.083-.054-.276-.081-.552-.081-.825 3.309 0 6-2.691 6-6h-2c0 2.206-1.794 4-4 4s-4-1.794-4-4c0-1.043.411-2.003 1.116-2.741.856.471 1.839.741 2.884.741 3.309 0 6-2.691 6-6h-2c0 2.206-1.794 4-4 4s-4-1.794-4-4c0-1.938 1.388-3.589 3.301-3.927l1.029-.182-.227-1.02c-.069-.31-.103-.595-.103-.871 0-2.206 1.794-4 4-4s4 1.794 4 4v20c0 1.209-.539 2.341-1.479 3.105zm-12.521 30.895h-2v-10h2zm2-4 30.132-.004-1.334 2.002 1.334 2.002h-30.132zm31.202 1.997 2-3.002-2-2.998 1.158-1.735 3.64 1.655v6.167l-3.639 1.654zm-1.071-4.002-30.131.005v-4h30.13l-1.333 1.997zm-46.131 1.005c0-2.757 2.243-5 5-5h5v10h-5c-2.757 0-5-2.243-5-5zm58 0c0 .217-.127.414-.324.504l-3.676 1.671v-4.349l3.676 1.671c.197.089.324.286.324.503z" data-original="#000000" class="active-path" data-old_color="#000000" fill="#FFA100"/><path d="m5 26h10v2h-10z" data-original="#000000" class="active-path" data-old_color="#000000" fill="#FFA100"/><path d="m5 30h10v2h-10z" data-original="#000000" class="active-path" data-old_color="#000000" fill="#FFA100"/><path d="m9 34h2v2h-2z" data-original="#000000" class="active-path" data-old_color="#000000" fill="#FFA100"/><path d="m13 34h2v2h-2z" data-original="#000000" class="active-path" data-old_color="#000000" fill="#FFA100"/><path d="m5 34h2v2h-2z" data-original="#000000" class="active-path" data-old_color="#000000" fill="#FFA100"/></g> </svg>
